<svg xmlns="http://www.w3.org/2000/svg" xmlns:xlink="http://www.w3.org/1999/xlink" width="1920" height="620" viewBox="0 0 1920 620">
  <defs>
    <clipPath id="clip-path">
      <rect id="Banner_Bg" data-name="Banner Bg" width="1920" height="620" transform="translate(-2)" fill="#ebf7f2"/>
    </clipPath>
    <linearGradient id="linear-gradient" x1="0.01" y1="0.987" x2="1" gradientUnits="objectBoundingBox">
      <stop offset="0" stop-color="#36b37e"/>
      <stop offset="0.468" stop-color="#36b37e" stop-opacity="0.502"/>
      <stop offset="1" stop-color="#fff" stop-opacity="0"/>
    </linearGradient>
  </defs>
  <g id="Bg" transform="translate(2 139)">
    <rect id="Gradient_Layer" data-name="Gradient Layer" width="1920" height="620" transform="translate(-2 -139)" fill="#ebf7f2"/>
    <g id="Mask_Group_2" data-name="Mask Group 2" transform="translate(0 -139)" clip-path="url(#clip-path)">
      <g id="Stars">
        <path id="Path_415" data-name="Path 415" d="M601.047,240.56c1.4,1.495-51.28,53.153-54.028,55.729s-6.112,3.452-7.513,1.958-.309-4.8,2.439-7.371S599.646,239.065,601.047,240.56Z" transform="translate(1072.926 213.024)" fill="url(#linear-gradient)"/>
        <path id="Path_417" data-name="Path 417" d="M578.467,240.548c.892.952-32.65,33.842-34.4,35.483s-3.892,2.2-4.784,1.246-.2-3.053,1.553-4.693S577.575,239.6,578.467,240.548Z" transform="translate(-500.894 -18.751)" fill="url(#linear-gradient)"/>
        <path id="Path_418" data-name="Path 418" d="M586,240.552c1.062,1.133-38.866,40.285-40.949,42.238s-4.633,2.617-5.694,1.484-.234-3.634,1.849-5.587S584.939,239.419,586,240.552Z" transform="translate(1190.915 19.163)" fill="url(#linear-gradient)"/>
        <path id="Path_419" data-name="Path 419" d="M618.05,240.569c1.784,1.9-65.308,67.693-68.809,70.975s-7.784,4.4-9.569,2.493-.394-6.107,3.107-9.388S616.265,238.665,618.05,240.569Z" transform="translate(-351.085 205.024)" fill="url(#linear-gradient)"/>
      </g>
      <g id="Cloud" transform="translate(720.827 98.819)">
        <path id="Path_420" data-name="Path 420" d="M390.5,251.432c-2.039,1.19,147.091,0,147.091,0s-28.916-6.3-44.941-8.586c0,0-8.216-12.591-38.264-12.591s-36.413,14.309-36.413,14.309A51.5,51.5,0,0,0,390.5,251.432Z" transform="translate(639.61 301.967)" fill="#36b37e" opacity="0.05"/>
        <path id="Path_421" data-name="Path 421" d="M341.85,96.738H611.84s-3.675-10.482-37.653-13.976c0,0-9.182-16.307-46.835-19.8s-56.936,16.889-56.936,16.889-16.529-17.292-51.425-.2C418.991,79.646,371.236,78.1,341.85,96.738Z" transform="translate(740.897 45)" fill="#36b37e" opacity="0.05"/>
        <path id="Path_422" data-name="Path 422" d="M300.409,171.9H486.3s-2.529-5.69-25.924-7.589c0,0-6.322-8.851-32.246-10.748s-39.2,9.167-39.2,9.167-11.38-9.387-35.407-.109C353.521,162.625,320.643,161.785,300.409,171.9Z" transform="translate(672.338 141.292)" fill="#36b37e" opacity="0.05"/>
        <path id="Path_423" data-name="Path 423" d="M47.77,265.728H312.263s-3.6-8.1-36.884-10.8c0,0-9-12.594-45.882-15.292s-55.778,13.043-55.778,13.043-16.194-13.354-50.38-.154C123.34,252.529,76.558,251.334,47.77,265.728Z" transform="translate(-902.656 278.789)" fill="#36b37e" opacity="0.05"/>
        <path id="Path_424" data-name="Path 424" d="M24.173,169.311h380.74s1.32-10.757-15.837-13.59c0,0,1.979-15.287-24.415-19.251,0,0,3.96-29.442-38.932-27.178S283.5,145.53,283.5,145.53s-27.265-22.762-50.986-.263c0,0-24.348-18.537-51.191-3,0,0-49.318-31.867-84.9,1.607,0,0-30.588-7.5-41.826,13.392C54.594,157.265,44.315,152.431,24.173,169.311Z" transform="translate(-806 -70.138)" fill="#36b37e" opacity="0.05"/>
      </g>
    </g>
  </g>
</svg>
